<svg xmlns="http://www.w3.org/2000/svg" viewBox="0 0 512 512" role="img" aria-labelledby="title desc">
  <title id="title">Meow Line</title>
  <desc id="desc">A friendly cat above four colorful matching lines.</desc>
  <rect width="512" height="512" rx="116" fill="#fff1d6"/>
  <path d="M131 224 112 100l103 72c26-10 56-15 91-15s65 5 91 15l103-72-19 124c16 26 25 57 25 91 0 92-89 143-200 143S106 407 106 315c0-34 9-65 25-91Z" fill="#efa05f" stroke="#8b4c32" stroke-width="12" stroke-linejoin="round"/>
  <path d="m139 130 65 45-56 22Z" fill="#f49a9e" stroke="#8b4c32" stroke-width="8" stroke-linejoin="round"/>
  <path d="m373 130-65 45 56 22Z" fill="#f49a9e" stroke="#8b4c32" stroke-width="8" stroke-linejoin="round"/>
  <ellipse cx="204" cy="295" rx="16" ry="23" fill="#4c3028"/>
  <ellipse cx="308" cy="295" rx="16" ry="23" fill="#4c3028"/>
  <circle cx="199" cy="287" r="5" fill="#fff8e8"/>
  <circle cx="303" cy="287" r="5" fill="#fff8e8"/>
  <path d="m256 316-12 10 12 12 12-12Z" fill="#e86f72"/>
  <path d="M256 338c-13 18-31 18-43 5m43-5c13 18 31 18 43 5M152 326 82 312m70 35-72 4m280-25 70-14m-70 49 72 4" fill="none" stroke="#8b4c32" stroke-width="8" stroke-linecap="round"/>
  <g stroke="#8b4c32" stroke-width="9" stroke-linecap="round">
    <path d="M112 425h66" stroke="#f49a83"/>
    <path d="M190 425h66" stroke="#7dc5d1"/>
    <path d="M268 425h66" stroke="#ffd15b"/>
    <path d="M346 425h54" stroke="#bc91d5"/>
  </g>
</svg>
